<svg width="24" height="30" viewBox="0 0 24 30" fill="none" xmlns="http://www.w3.org/2000/svg">
<path d="M12.6002 1.9465L12.1397 2.53852L12.1417 2.54004L12.6002 1.9465ZM10.9735 1.9465L11.4286 2.54274L11.434 2.53852L10.9735 1.9465ZM1.00016 17.5332H1.75017L1.75015 17.5291L1.00016 17.5332ZM22.6002 17.5465L21.8502 17.5451V17.5465H22.6002ZM12.5369 1.6665C12.5369 1.25229 12.2011 0.916504 11.7869 0.916504C11.3727 0.916504 11.0369 1.25229 11.0369 1.6665H12.5369ZM11.0369 28.3332C11.0369 28.7474 11.3727 29.0832 11.7869 29.0832C12.2011 29.0832 12.5369 28.7474 12.5369 28.3332H11.0369ZM11.4592 23.6051C11.0866 23.7861 10.9313 24.2348 11.1122 24.6074C11.2932 24.98 11.742 25.1353 12.1145 24.9544L11.4592 23.6051ZM22.3812 19.9677C22.7538 19.7867 22.9092 19.338 22.7282 18.9654C22.5472 18.5928 22.0985 18.4375 21.7259 18.6184L22.3812 19.9677ZM11.4592 16.9384C11.0866 17.1194 10.9313 17.5681 11.1122 17.9407C11.2932 18.3133 11.742 18.4686 12.1146 18.2876L11.4592 16.9384ZM21.9412 13.5143C22.3138 13.3333 22.4691 12.8846 22.2881 12.512C22.1072 12.1394 21.6584 11.9841 21.2858 12.1651L21.9412 13.5143ZM11.4584 10.2722C11.0861 10.4536 10.9312 10.9025 11.1126 11.2749C11.294 11.6473 11.7429 11.8021 12.1153 11.6207L11.4584 10.2722ZM18.822 8.35405C19.1944 8.17267 19.3492 7.72375 19.1678 7.35137C18.9865 6.97898 18.5375 6.82413 18.1652 7.00551L18.822 8.35405ZM13.0606 1.35449C12.3098 0.770509 11.2639 0.770509 10.5131 1.35449L11.434 2.53852C11.6432 2.37583 11.9306 2.37583 12.1397 2.53852L13.0606 1.35449ZM10.5185 1.35029C9.22811 2.33509 6.67114 4.43784 4.4354 7.24232C2.20932 10.0347 0.22881 13.614 0.250171 17.5373L1.75015 17.5291C1.73151 14.1057 3.47103 10.8583 5.6083 8.17736C7.73593 5.5085 10.1856 3.49125 11.4286 2.54272L10.5185 1.35029ZM0.25016 17.5332C0.25016 23.8935 5.4254 29.0832 11.8002 29.0832V27.5832C6.25502 27.5832 1.75016 23.0662 1.75016 17.5332H0.25016ZM11.8002 29.0832C18.1738 29.0832 23.3502 23.908 23.3502 17.5465H21.8502C21.8502 23.0784 17.3466 27.5832 11.8002 27.5832V29.0832ZM23.3502 17.5479C23.3573 13.6775 21.3655 10.0988 19.1374 7.2949C16.8982 4.47719 14.343 2.34507 13.0587 1.35297L12.1417 2.54004C13.3774 3.4946 15.8288 5.54249 17.963 8.22812C20.1082 10.9276 21.8564 14.1755 21.8502 17.5451L23.3502 17.5479ZM11.0369 1.6665V28.3332H12.5369V1.6665H11.0369ZM12.1145 24.9544L22.3812 19.9677L21.7259 18.6184L11.4592 23.6051L12.1145 24.9544ZM12.1146 18.2876L21.9412 13.5143L21.2858 12.1651L11.4592 16.9384L12.1146 18.2876ZM12.1153 11.6207L18.822 8.35405L18.1652 7.00551L11.4584 10.2722L12.1153 11.6207Z" fill="url(#paint0_linear_74_646)"/>
<defs>
<linearGradient id="paint0_linear_74_646" x1="1" y1="-16.6983" x2="25.495" y2="-15.2333" gradientUnits="userSpaceOnUse">
<stop offset="0.182292" stop-color="#C81B1B"/>
<stop offset="0.640625" stop-color="#FF3E3E"/>
<stop offset="0.885417" stop-color="#C80707"/>
</linearGradient>
</defs>
</svg>
