<svg width="149" height="23" viewBox="0 0 149 23" fill="none" xmlns="http://www.w3.org/2000/svg">
<path d="M9.80666 6.45303L13.9484 8.81086V13.5265L9.80666 15.8844L5.66496 13.5265V8.81086L9.80666 6.45303ZM9.80666 0L0 5.58435V16.753L9.80666 22.3374L19.6133 16.753V5.58435L9.80666 0Z" fill="url(#paint0_linear_74_433)"/>
<path d="M34.8952 18.6867C37.6737 18.6867 39.6024 17.3138 39.586 15.3197C39.5697 13.6526 38.4092 12.5085 35.598 12.0345L34.3558 11.822C32.6397 11.5278 31.8715 11.0212 31.8715 10.1712C31.8715 9.1252 32.9339 8.48777 34.65 8.48777C36.0393 8.48777 37.2978 9.04348 37.7555 10.1876H39.4716C38.9159 8.07916 37.02 6.9187 34.7317 6.9187C32.0022 6.9187 30.1553 8.20991 30.188 10.1549C30.2207 11.773 31.4465 12.9008 34.0616 13.3748L35.3038 13.6036C37.1507 13.9795 37.9026 14.4862 37.9026 15.3851C37.9026 16.4148 36.7094 17.1176 34.9442 17.1176C33.13 17.1176 32.0513 16.4639 31.5119 14.9438H29.8774C30.2861 17.3301 32.2801 18.6867 34.8952 18.6867Z" fill="white"/>
<path d="M51.4414 10.1876C50.1829 10.1876 49.0387 10.8577 48.4177 11.8384C47.8293 10.727 46.7342 10.1876 45.4757 10.1876C44.3969 10.1876 43.4326 10.776 42.8605 11.6422V10.351H41.3895V18.5233H42.9423V14.1593C42.9423 12.819 43.8085 11.6749 45.1978 11.6749C46.3909 11.6749 47.3553 12.5412 47.3553 14.0285V18.5233H48.908V14.1593C48.908 12.819 49.7742 11.6749 51.1635 11.6749C52.3567 11.6749 53.321 12.5412 53.321 14.0285V18.5233H54.8737V13.9958C54.8737 11.4134 53.3373 10.1876 51.4414 10.1876Z" fill="white"/>
<path d="M65.1153 17.0523C64.8538 17.0523 64.6903 16.8888 64.6903 16.611V14.4371L65.2787 10.351H63.8077L63.5789 11.9038C62.8924 10.8577 61.7974 10.1876 60.5388 10.1876C58.2997 10.1876 56.5835 11.9528 56.5835 14.4371C56.5835 16.9215 58.2833 18.6867 60.4898 18.6867C61.6339 18.6867 62.6473 18.131 63.3337 17.2157C63.3664 18.0493 63.8568 18.5233 64.7067 18.5233H65.4912V17.0523H65.1153ZM60.7023 17.2484C59.2476 17.2484 58.1852 16.0716 58.1852 14.4371C58.1852 12.8027 59.2476 11.6259 60.7023 11.6259C62.1733 11.6259 63.252 12.8027 63.252 14.4371C63.252 16.0716 62.1733 17.2484 60.7023 17.2484Z" fill="white"/>
<path d="M71.6223 10.1876C70.5109 10.1876 69.5139 10.7596 68.9255 11.6096V10.351H67.4545V18.5233H69.0072V14.0939C69.0072 12.8027 69.9388 11.6913 71.4262 11.6913C71.7694 11.6913 72.0636 11.6913 72.3578 11.7567V10.2366C72.129 10.2039 71.8675 10.1876 71.6223 10.1876Z" fill="white"/>
<path d="M78.3299 11.822V10.351H76.0417V8.22626H74.4889V10.351H72.8545V11.822H74.4889V16.137C74.4889 17.8041 75.3062 18.6867 77.0877 18.6867C77.5454 18.6867 77.9703 18.605 78.1665 18.5396V17.1176C77.8232 17.1994 77.529 17.2157 77.1694 17.2157C76.2868 17.2157 76.0417 16.7907 76.0417 16.137V11.822H78.3299Z" fill="white"/>
<path d="M80.2912 7.08215V18.5233H81.9257V7.08215H80.2912Z" fill="white"/>
<path d="M88.8765 10.1876C87.7651 10.1876 86.7681 10.776 86.1797 11.6586V10.351H84.7087V18.5233H86.2614V14.1593C86.2614 12.819 87.1604 11.6749 88.5987 11.6749C89.8408 11.6749 90.8379 12.5412 90.8379 14.0285V18.5233H92.3906V13.9958C92.3906 11.4134 90.8215 10.1876 88.8765 10.1876Z" fill="white"/>
<path d="M100.577 10.351L97.7654 16.9869L94.9378 10.351H93.2052L96.7193 18.5233H98.746L102.26 10.351H100.577Z" fill="white"/>
<path d="M106.864 10.1876C104.445 10.1876 102.68 11.9855 102.68 14.4371C102.68 16.8888 104.445 18.6867 106.88 18.6867C108.678 18.6867 110.215 17.608 110.738 16.0879H109.136C108.727 16.7907 108.025 17.2484 106.88 17.2484C105.606 17.2484 104.527 16.3494 104.298 15.0746H110.999C111.212 12.0999 109.545 10.1876 106.864 10.1876ZM106.831 11.5605C108.172 11.5605 109.201 12.3941 109.332 13.718H104.314C104.527 12.4595 105.524 11.5605 106.831 11.5605Z" fill="white"/>
<path d="M115.773 18.6867C117.996 18.6867 119.336 17.706 119.336 16.2841C119.336 14.9929 118.601 14.1266 116.296 13.7343L115.348 13.5709C114.237 13.3911 113.763 13.0642 113.763 12.5412C113.763 11.9528 114.482 11.5932 115.61 11.5932C116.443 11.5932 117.309 11.9364 117.587 12.6229H119.238C118.879 11.0702 117.44 10.1876 115.626 10.1876C113.583 10.1876 112.194 11.1356 112.194 12.5902C112.194 13.7834 113.109 14.6006 115.136 14.9602L116.067 15.1236C117.457 15.3524 117.8 15.712 117.8 16.2841C117.8 16.8888 117.015 17.3138 115.838 17.3138C114.596 17.3138 113.812 16.9052 113.518 15.9408H111.965C112.194 17.6897 113.779 18.6867 115.773 18.6867Z" fill="white"/>
<path d="M125.464 11.822V10.351H123.176V8.22626H121.623V10.351H119.988V11.822H121.623V16.137C121.623 17.8041 122.44 18.6867 124.222 18.6867C124.679 18.6867 125.104 18.605 125.3 18.5396V17.1176C124.957 17.1994 124.663 17.2157 124.303 17.2157C123.421 17.2157 123.176 16.7907 123.176 16.137V11.822H125.464Z" fill="white"/>
<path d="M127.18 7.08215V8.88003H128.912V7.08215H127.18ZM127.262 10.351V18.5233H128.814V10.351H127.262Z" fill="white"/>
<path d="M135.595 10.1876C134.484 10.1876 133.487 10.776 132.899 11.6586V10.351H131.428V18.5233H132.98V14.1593C132.98 12.819 133.879 11.6749 135.318 11.6749C136.56 11.6749 137.557 12.5412 137.557 14.0285V18.5233H139.11V13.9958C139.11 11.4134 137.54 10.1876 135.595 10.1876Z" fill="white"/>
<path d="M147.529 10.351V11.6422C146.842 10.7433 145.796 10.1876 144.603 10.1876C142.462 10.1876 140.828 11.9691 140.828 14.3064C140.828 16.66 142.446 18.4415 144.603 18.4415C145.747 18.4415 146.761 17.9185 147.447 17.0849V18.0329C147.447 19.4385 146.663 20.1577 145.11 20.1577C143.884 20.1577 143.099 19.7164 142.871 18.9155H141.334C141.612 20.5009 143.034 21.4653 145.028 21.4653C147.431 21.4653 149 20.2231 149 17.8695V10.351H147.529ZM144.946 17.0849C143.492 17.0849 142.429 15.9408 142.429 14.3554C142.429 12.77 143.492 11.6259 144.946 11.6259C146.417 11.6259 147.496 12.77 147.496 14.3554C147.496 15.9408 146.417 17.0849 144.946 17.0849Z" fill="white"/>
<defs>
<linearGradient id="paint0_linear_74_433" x1="3.67671e-07" y1="-15.3833" x2="22.228" y2="-13.9422" gradientUnits="userSpaceOnUse">
<stop offset="0.182292" stop-color="#C81B1B"/>
<stop offset="0.640625" stop-color="#FF3E3E"/>
<stop offset="0.885417" stop-color="#C80707"/>
</linearGradient>
</defs>
</svg>
