<svg width="32" height="32" viewBox="0 0 32 32" fill="none" xmlns="http://www.w3.org/2000/svg">
<path d="M11.6 28.2286C12.1286 27.3714 12.4286 26.3571 12.4286 25.2857C12.4286 22.1286 9.87143 19.5714 6.71429 19.5714M11.6 28.2286C10.6143 29.8857 8.8 31 6.71429 31C4.62857 31 2.81429 29.8857 1.82857 28.2286C1.3 27.3714 1 26.3571 1 25.2857C1 22.1286 3.55714 19.5714 6.71429 19.5714M11.6 28.2286C11.3 28.7429 10.9143 29.2 10.4714 29.5714H23.8571C28.1429 29.5714 31 26.7143 31 22.4286V15.2857C31 11.3714 28.6143 8.64284 24.9286 8.21427C24.5857 8.15713 24.2286 8.14286 23.8571 8.14286H9.57143C9.17143 8.14286 8.78571 8.17143 8.41428 8.22857C4.77143 8.68571 2.42857 11.4 2.42857 15.2857V21.5143C3.47143 20.3286 5 19.5714 6.71429 19.5714M4.48772 25.285L5.90201 26.6993L8.94487 23.885M31 16H26.7143C25.1429 16 23.8571 17.2857 23.8571 18.8571C23.8571 20.4286 25.1429 21.7143 26.7143 21.7143H31M24.9306 8.21424C24.5877 8.1571 24.2306 8.14283 23.8592 8.14283H9.57344C9.17344 8.14283 8.78772 8.1714 8.4163 8.22854C8.6163 7.82854 8.90201 7.45716 9.24487 7.1143L13.8877 2.45714C15.8449 0.514286 19.0163 0.514286 20.9734 2.45714L23.4734 4.98566C24.3877 5.88566 24.8734 7.02853 24.9306 8.21424Z" stroke="url(#paint0_linear_74_450)" stroke-width="2" stroke-linecap="round" stroke-linejoin="round"/>
<defs>
<linearGradient id="paint0_linear_74_450" x1="1" y1="-19.6604" x2="34.9571" y2="-17.1531" gradientUnits="userSpaceOnUse">
<stop offset="0.182292" stop-color="#C81B1B"/>
<stop offset="0.640625" stop-color="#FF3E3E"/>
<stop offset="0.885417" stop-color="#C80707"/>
</linearGradient>
</defs>
</svg>
