<svg width="229" height="35" viewBox="0 0 229 35" fill="none" xmlns="http://www.w3.org/2000/svg">
<path d="M15.072 9.91774L21.4374 13.5415V20.7891L15.072 24.4129L8.70656 20.7891V13.5415L15.072 9.91774ZM15.072 0L0 8.58266V25.748L15.072 34.3307L30.144 25.748V8.58266L15.072 0Z" fill="url(#paint0_linear_88_1040)"/>
<path d="M53.6305 28.7212C57.9009 28.7212 60.8651 26.6111 60.8399 23.5464C60.8148 20.9842 59.0313 19.2258 54.7107 18.4973L52.8015 18.1708C50.1639 17.7186 48.9833 16.9399 48.9833 15.6336C48.9833 14.026 50.6161 13.0463 53.2537 13.0463C55.3889 13.0463 57.3231 13.9004 58.0265 15.6588H60.6641C59.81 12.4183 56.8961 10.6348 53.3793 10.6348C49.1843 10.6348 46.3457 12.6192 46.396 15.6085C46.4462 18.0954 48.3302 19.8287 52.3494 20.5572L54.2585 20.9088C57.0971 21.4866 58.2526 22.2653 58.2526 23.6469C58.2526 25.2295 56.4188 26.3096 53.7059 26.3096C50.9175 26.3096 49.2596 25.3048 48.4307 22.9687H45.9187C46.5467 26.6362 49.6113 28.7212 53.6305 28.7212Z" fill="white"/>
<path d="M79.0606 15.6588C77.1263 15.6588 75.3679 16.6887 74.4134 18.1959C73.5091 16.4877 71.826 15.6588 69.8918 15.6588C68.2339 15.6588 66.7518 16.5631 65.8726 17.8944V15.91H63.6118V28.47H65.9982V21.7629C65.9982 19.7031 67.3295 17.9447 69.4647 17.9447C71.2985 17.9447 72.7806 19.276 72.7806 21.562V28.47H75.167V21.7629C75.167 19.7031 76.4983 17.9447 78.6335 17.9447C80.4673 17.9447 81.9494 19.276 81.9494 21.562V28.47H84.3358V21.5117C84.3358 17.5428 81.9745 15.6588 79.0606 15.6588Z" fill="white"/>
<path d="M100.076 26.2092C99.6743 26.2092 99.4231 25.958 99.4231 25.5309V22.19L100.327 15.91H98.0666L97.7149 18.2964C96.6599 16.6887 94.9768 15.6588 93.0426 15.6588C89.6012 15.6588 86.9636 18.3717 86.9636 22.19C86.9636 26.0082 89.576 28.7212 92.9672 28.7212C94.7256 28.7212 96.2831 27.8671 97.3381 26.4604C97.3884 27.7415 98.142 28.47 99.4482 28.47H100.654V26.2092H100.076ZM93.2938 26.5106C91.0581 26.5106 89.4253 24.702 89.4253 22.19C89.4253 19.678 91.0581 17.8693 93.2938 17.8693C95.5546 17.8693 97.2125 19.678 97.2125 22.19C97.2125 24.702 95.5546 26.5106 93.2938 26.5106Z" fill="white"/>
<path d="M110.077 15.6588C108.369 15.6588 106.836 16.538 105.932 17.8442V15.91H103.671V28.47H106.058V21.6624C106.058 19.678 107.49 17.9698 109.775 17.9698C110.303 17.9698 110.755 17.9698 111.207 18.0703V15.7341C110.856 15.6839 110.454 15.6588 110.077 15.6588Z" fill="white"/>
<path d="M120.386 18.1708V15.91H116.869V12.6444H114.483V15.91H111.971V18.1708H114.483V24.8024C114.483 27.3647 115.739 28.7212 118.477 28.7212C119.18 28.7212 119.833 28.5956 120.135 28.4951V26.3096C119.607 26.4352 119.155 26.4604 118.602 26.4604C117.246 26.4604 116.869 25.8072 116.869 24.8024V18.1708H120.386Z" fill="white"/>
<path d="M123.4 10.886V28.47H125.912V10.886H123.4Z" fill="white"/>
<path d="M136.595 15.6588C134.887 15.6588 133.355 16.5631 132.45 17.9196V15.91H130.19V28.47H132.576V21.7629C132.576 19.7031 133.958 17.9447 136.168 17.9447C138.077 17.9447 139.61 19.276 139.61 21.562V28.47H141.996V21.5117C141.996 17.5428 139.584 15.6588 136.595 15.6588Z" fill="white"/>
<path d="M154.577 15.91L150.257 26.1087L145.911 15.91H143.248L148.649 28.47H151.764L157.165 15.91H154.577Z" fill="white"/>
<path d="M164.241 15.6588C160.523 15.6588 157.81 18.422 157.81 22.19C157.81 25.958 160.523 28.7212 164.266 28.7212C167.029 28.7212 169.39 27.0632 170.194 24.7271H167.732C167.104 25.8072 166.024 26.5106 164.266 26.5106C162.306 26.5106 160.648 25.129 160.297 23.1696H170.596C170.922 18.5978 168.36 15.6588 164.241 15.6588ZM164.19 17.7688C166.25 17.7688 167.833 19.05 168.034 21.0847H160.322C160.648 19.1504 162.181 17.7688 164.19 17.7688Z" fill="white"/>
<path d="M177.933 28.7212C181.349 28.7212 183.409 27.214 183.409 25.0285C183.409 23.044 182.279 21.7127 178.737 21.1098L177.28 20.8586C175.572 20.5823 174.843 20.0799 174.843 19.276C174.843 18.3717 175.948 17.8191 177.682 17.8191C178.963 17.8191 180.294 18.3466 180.721 19.4016H183.258C182.706 17.0152 180.495 15.6588 177.707 15.6588C174.567 15.6588 172.432 17.1157 172.432 19.3514C172.432 21.1852 173.838 22.4412 176.953 22.9938L178.385 23.245C180.52 23.5967 181.048 24.1493 181.048 25.0285C181.048 25.958 179.842 26.6111 178.033 26.6111C176.124 26.6111 174.918 25.9831 174.466 24.501H172.08C172.432 27.1888 174.868 28.7212 177.933 28.7212Z" fill="white"/>
<path d="M192.827 18.1708V15.91H189.31V12.6444H186.923V15.91H184.411V18.1708H186.923V24.8024C186.923 27.3647 188.179 28.7212 190.918 28.7212C191.621 28.7212 192.274 28.5956 192.575 28.4951V26.3096C192.048 26.4352 191.596 26.4604 191.043 26.4604C189.687 26.4604 189.31 25.8072 189.31 24.8024V18.1708H192.827Z" fill="white"/>
<path d="M195.464 10.886V13.6492H198.127V10.886H195.464ZM195.59 15.91V28.47H197.976V15.91H195.59Z" fill="white"/>
<path d="M208.398 15.6588C206.69 15.6588 205.158 16.5631 204.253 17.9196V15.91H201.993V28.47H204.379V21.7629C204.379 19.7031 205.76 17.9447 207.971 17.9447C209.88 17.9447 211.413 19.276 211.413 21.562V28.47H213.799V21.5117C213.799 17.5428 211.387 15.6588 208.398 15.6588Z" fill="white"/>
<path d="M226.739 15.91V17.8944C225.684 16.5128 224.076 15.6588 222.242 15.6588C218.951 15.6588 216.439 18.3968 216.439 21.989C216.439 25.6063 218.926 28.3444 222.242 28.3444C224.001 28.3444 225.558 27.5405 226.613 26.2594V27.7164C226.613 29.8767 225.407 30.982 223.021 30.982C221.137 30.982 219.931 30.3037 219.579 29.0728H217.218C217.645 31.5095 219.831 32.9916 222.895 32.9916C226.588 32.9916 228.999 31.0824 228.999 27.4652V15.91H226.739ZM222.77 26.2594C220.534 26.2594 218.901 24.501 218.901 22.0644C218.901 19.6277 220.534 17.8693 222.77 17.8693C225.03 17.8693 226.688 19.6277 226.688 22.0644C226.688 24.501 225.03 26.2594 222.77 26.2594Z" fill="white"/>
<defs>
<linearGradient id="paint0_linear_88_1040" x1="5.65079e-07" y1="-23.6428" x2="34.1625" y2="-21.428" gradientUnits="userSpaceOnUse">
<stop offset="0.182292" stop-color="#C81B1B"/>
<stop offset="0.640625" stop-color="#FF3E3E"/>
<stop offset="0.885417" stop-color="#C80707"/>
</linearGradient>
</defs>
</svg>
